<?xml version="1.0" encoding="UTF-8" standalone="no"?>
<svg
   xmlns:dc="http://purl.org/dc/elements/1.1/"
   xmlns:cc="http://creativecommons.org/ns#"
   xmlns:rdf="http://www.w3.org/1999/02/22-rdf-syntax-ns#"
   xmlns:svg="http://www.w3.org/2000/svg"
   xmlns="http://www.w3.org/2000/svg"
   xmlns:sodipodi="http://sodipodi.sourceforge.net/DTD/sodipodi-0.dtd"
   xmlns:inkscape="http://www.inkscape.org/namespaces/inkscape"
   version="1.1"
   x="0px"
   y="0px"
   viewBox="11.356 13.684 100 100"
   enable-background="new 11.356 13.684 100 100"
   xml:space="preserve"
   id="svg2"
   inkscape:version="0.91 r13725"
   sodipodi:docname="noun_10918_cc.svg"
   width="100"
   height="100"><metadata
     id="metadata14"><rdf:RDF><cc:Work
         rdf:about=""><dc:format>image/svg+xml</dc:format><dc:type
           rdf:resource="http://purl.org/dc/dcmitype/StillImage" /><dc:title></dc:title></cc:Work></rdf:RDF></metadata><defs
     id="defs12" /><sodipodi:namedview
     pagecolor="#ffffff"
     bordercolor="#666666"
     borderopacity="1"
     objecttolerance="10"
     gridtolerance="10"
     guidetolerance="10"
     inkscape:pageopacity="0"
     inkscape:pageshadow="2"
     inkscape:window-width="1536"
     inkscape:window-height="811"
     id="namedview10"
     showgrid="false"
     inkscape:zoom="5.3400704"
     inkscape:cx="58.432774"
     inkscape:cy="54.655058"
     inkscape:window-x="1912"
     inkscape:window-y="-8"
     inkscape:window-maximized="1"
     inkscape:current-layer="svg2" /><path
     d="m 80.048,14.107729 c -17.29,0 -31.307,14.017 -31.307,31.308 0,7.003 2.326,13.417 6.21,18.631 L 13.35,102.41573 c -2.658,2.657 -2.658,7.041 0,9.698 2.658,2.658 6.956,2.658 9.613,0 L 61.332,70.511729 c 5.22,3.897 11.701,6.211 18.716,6.211 17.291,0 31.308,-14.018 31.308,-31.308 0,-17.29 -14.017,-31.307 -31.308,-31.307 z m 0,5.445 c 14.284,0 25.863,11.579 25.863,25.863 0,14.284 -11.579,25.862 -25.863,25.862 -14.284,0 -25.862,-11.579 -25.862,-25.862 0,-14.283 11.578,-25.863 25.862,-25.863 z"
     id="path4"
     inkscape:connector-curvature="0" /></svg>